<svg xmlns:dc="http://purl.org/dc/elements/1.1/" xmlns:cc="http://creativecommons.org/ns#" xmlns:rdf="http://www.w3.org/1999/02/22-rdf-syntax-ns#" xmlns:svg="http://www.w3.org/2000/svg" xmlns="http://www.w3.org/2000/svg" xmlns:sodipodi="http://sodipodi.sourceforge.net/DTD/sodipodi-0.dtd" xmlns:inkscape="http://www.inkscape.org/namespaces/inkscape" inkscape:version="1.0 (4035a4fb49, 2020-05-01)" height="30" width="26" sodipodi:docname="logo-jm-bleu-icon.svg" version="1.1" viewBox="0 0 26 30" data-name="Calque 1" id="Calque_1">
  <metadata id="metadata35">
    <rdf:RDF>
      <cc:Work rdf:about="">
        <dc:format>image/svg+xml</dc:format>
        <dc:type rdf:resource="http://purl.org/dc/dcmitype/StillImage"/>
        <dc:title>Plan de travail 1</dc:title>
      </cc:Work>
    </rdf:RDF>
  </metadata>
  <sodipodi:namedview inkscape:current-layer="Calque_1" inkscape:window-maximized="1" inkscape:window-y="-9" inkscape:window-x="-9" inkscape:cy="15" inkscape:cx="78" inkscape:zoom="7.7435897" fit-margin-bottom="0" fit-margin-right="0" fit-margin-left="0" fit-margin-top="0" showgrid="false" id="namedview33" inkscape:window-height="1001" inkscape:window-width="1920" inkscape:pageshadow="2" inkscape:pageopacity="0" guidetolerance="10" gridtolerance="10" objecttolerance="10" borderopacity="1" bordercolor="#666666" pagecolor="#ffffff"/>
  <defs id="defs4">
    <style id="style2">.cls-1{fill:#3d8cbc;}</style>
  </defs>
  <title id="title6">Plan de travail 1</title>
  <path id="path8" d="M 21.09,22.3 C 15.33,23.8 6,21 5.62,13.93 a 12.68,12.68 0 0 0 3,13.25 12.85,12.85 0 0 0 1.75,1.46 c 0.75,0.44 1.24,0.67 1.24,0.67 L 13,30 14.41,29.32 a 29.29,29.29 0 0 0 5.56,-3.71 20,20 0 0 0 3.89,-4.37 13.74,13.74 0 0 1 -2.7,1 z" class="cls-1"/>
  <path id="path10" d="m 21.85,6.62 a 13.55,13.55 0 0 1 0.15,2.92 14.13,14.13 0 0 1 -3.89,9 7.47,7.47 0 0 1 -2.19,1.59 c -0.61,0.29 -2,0.92 -2.72,0.67 A 12.7,12.7 0 0 0 25,19.17 11.73,11.73 0 0 0 26,14.5 V 0 h -7.22 c 0.37,0 1.3,1.81 1.48,2.12 a 13.74,13.74 0 0 1 1.59,4.49 z" class="cls-1"/>
  <path id="path12" d="M 3.73,19.24 C 3.43,13.8 6.48,6.64 12.49,6.34 A 12.66,12.66 0 0 0 0,8.62 V 14.5 C 0,18.26 1.92,22 5.56,25.22 A 13.68,13.68 0 0 1 3.87,20.56 11.86,11.86 0 0 1 3.73,19.24 Z" class="cls-1"/>
  <path id="path14" d="M 5.86,4.61 A 13.66,13.66 0 0 1 9.44,4.49 c 4.64,0.45 10.4,3.52 10.67,8.73 A 12.75,12.75 0 0 0 17.16,0 H 0 V 7.1 C 0,6.76 1.91,5.92 2.21,5.77 A 13.87,13.87 0 0 1 4.74,4.85 Q 5.3,4.7 5.86,4.61 Z" class="cls-1"/>
</svg> 